name Walk6.mot
datacolumns 19
datarows 17
range 3.02000000 3.03600000
endheader

                time	   L_ground_force_vx	   L_ground_force_vy	   L_ground_force_vz	   L_ground_force_px	   L_ground_force_py	   L_ground_force_pz	   R_ground_force_vx	   R_ground_force_vy	   R_ground_force_vz	   R_ground_force_px	   R_ground_force_py	   R_ground_force_pz	   L_ground_torque_x	   L_ground_torque_y	   L_ground_torque_z	   R_ground_torque_x	   R_ground_torque_y	   R_ground_torque_z	
          3.02000000	          0.00000000	          0.00000000	          0.00000000	          0.00000000	          0.00000000	          0.00000000	        -26.30576326	        903.95847517	        -60.47208325	          0.45226799	          0.00000000	          0.10373728	          0.00000000	          0.00000000	          0.00000000	          0.00000000	          4.72404184	          0.00000000	
          3.02100000	          0.00000000	          0.00000000	          0.00000000	          0.00000000	          0.00000000	          0.00000000	        -25.91706080	        902.38732124	        -60.12878099	          0.45234947	          0.00000000	          0.10372795	          0.00000000	          0.00000000	          0.00000000	          0.00000000	          4.69585973	          0.00000000	
          3.02200000	          0.00000000	          0.00000000	          0.00000000	          0.00000000	          0.00000000	          0.00000000	        -25.52721480	        900.75660570	        -59.80229741	          0.45242265	          0.00000000	          0.10369525	          0.00000000	          0.00000000	          0.00000000	          0.00000000	          4.66549707	          0.00000000	
          3.02300000	          0.00000000	          0.00000000	          0.00000000	          0.00000000	          0.00000000	          0.00000000	        -25.13607658	        899.11916076	        -59.49921869	          0.45251407	          0.00000000	          0.10365841	          0.00000000	          0.00000000	          0.00000000	          0.00000000	          4.62194798	          0.00000000	
          3.02400000	          0.00000000	          0.00000000	          0.00000000	          0.00000000	          0.00000000	          0.00000000	        -24.74768704	        897.54257081	        -59.22424623	          0.45264524	          0.00000000	          0.10364737	          0.00000000	          0.00000000	          0.00000000	          0.00000000	          4.55808359	          0.00000000	
          3.02500000	          0.00000000	          0.00000000	          0.00000000	          0.00000000	          0.00000000	          0.00000000	        -24.36029066	        896.04951070	        -58.97838854	          0.45282587	          0.00000000	          0.10367764	          0.00000000	          0.00000000	          0.00000000	          0.00000000	          4.47685735	          0.00000000	
          3.02600000	          0.00000000	          0.00000000	          0.00000000	          0.00000000	          0.00000000	          0.00000000	        -23.96871608	        894.61231538	        -58.75983480	          0.45305531	          0.00000000	          0.10373774	          0.00000000	          0.00000000	          0.00000000	          0.00000000	          4.38761759	          0.00000000	
          3.02700000	          0.00000000	          0.00000000	          0.00000000	          0.00000000	          0.00000000	          0.00000000	        -23.57236743	        893.19128771	        -58.56314145	          0.45332272	          0.00000000	          0.10380676	          0.00000000	          0.00000000	          0.00000000	          0.00000000	          4.29898519	          0.00000000	
          3.02800000	          0.00000000	          0.00000000	          0.00000000	          0.00000000	          0.00000000	          0.00000000	        -23.17760748	        891.76857027	        -58.38077930	          0.45360223	          0.00000000	          0.10387180	          0.00000000	          0.00000000	          0.00000000	          0.00000000	          4.21651443	          0.00000000	
          3.02900000	          0.00000000	          0.00000000	          0.00000000	          0.00000000	          0.00000000	          0.00000000	        -22.79442739	        890.35196569	        -58.20695060	          0.45385442	          0.00000000	          0.10392772	          0.00000000	          0.00000000	          0.00000000	          0.00000000	          4.14360259	          0.00000000	
          3.03000000	          0.00000000	          0.00000000	          0.00000000	          0.00000000	          0.00000000	          0.00000000	        -22.42703186	        888.94977692	        -58.03781170	          0.45404771	          0.00000000	          0.10397205	          0.00000000	          0.00000000	          0.00000000	          0.00000000	          4.08210164	          0.00000000	
          3.03100000	          0.00000000	          0.00000000	          0.00000000	          0.00000000	          0.00000000	          0.00000000	        -22.06563455	        887.54888560	        -57.87230379	          0.45418645	          0.00000000	          0.10400608	          0.00000000	          0.00000000	          0.00000000	          0.00000000	          4.03219825	          0.00000000	
          3.03200000	          0.00000000	          0.00000000	          0.00000000	          0.00000000	          0.00000000	          0.00000000	        -21.69452849	        886.13139708	        -57.71511044	          0.45430808	          0.00000000	          0.10403813	          0.00000000	          0.00000000	          0.00000000	          0.00000000	          3.99243163	          0.00000000	
          3.03300000	          0.00000000	          0.00000000	          0.00000000	          0.00000000	          0.00000000	          0.00000000	        -21.30830445	        884.70716490	        -57.57389788	          0.45445757	          0.00000000	          0.10408100	          0.00000000	          0.00000000	          0.00000000	          0.00000000	          3.95955628	          0.00000000	
          3.03400000	          0.00000000	          0.00000000	          0.00000000	          0.00000000	          0.00000000	          0.00000000	        -20.91241974	        883.30147609	        -57.45162640	          0.45467006	          0.00000000	          0.10413789	          0.00000000	          0.00000000	          0.00000000	          0.00000000	          3.92811561	          0.00000000	
          3.03500000	          0.00000000	          0.00000000	          0.00000000	          0.00000000	          0.00000000	          0.00000000	        -20.51130648	        881.91554602	        -57.34285700	          0.45495184	          0.00000000	          0.10418843	          0.00000000	          0.00000000	          0.00000000	          0.00000000	          3.89117095	          0.00000000	
          3.03600000	          0.00000000	          0.00000000	          0.00000000	          0.00000000	          0.00000000	          0.00000000	        -20.10695810	        880.53205108	        -57.23888459	          0.45527180	          0.00000000	          0.10420246	          0.00000000	          0.00000000	          0.00000000	          0.00000000	          3.84269505	          0.00000000	
